<?xml version="1.0" standalone="no"?>
<!DOCTYPE svg PUBLIC "-//W3C//DTD SVG 20010904//EN"
 "http://www.w3.org/TR/2001/REC-SVG-20010904/DTD/svg10.dtd">
<svg version="1.0" xmlns="http://www.w3.org/2000/svg"
 width="300.000000pt" height="300.000000pt" viewBox="0 0 300.000000 300.000000"
 preserveAspectRatio="xMidYMid meet">

  <g transform="translate(0.000000,300.000000) scale(0.100000,-0.100000)"
  fill="#000000" stroke="none">
    <path d="M1050 2990 c-336 -42 -657 -241 -844 -523 -72 -109 -108 -183 -144
-297 -57 -181 -57 -179 -57 -670 0 -499 0 -504 66 -697 79 -235 251 -457 462
-597 109 -72 183 -108 297 -144 181 -57 179 -57 670 -57 491 0 489 0 670 57
351 112 643 396 759 741 66 193 66 198 66 697 0 491 0 489 -57 670 -93 293
-299 538 -579 689 -82 45 -177 80 -304 113 -74 19 -110 21 -510 24 -236 1
-459 -1 -495 -6z m1025 -113 c187 -51 387 -166 514 -297 132 -136 236 -318
288 -505 l28 -100 0 -475 0 -475 -28 -100 c-51 -188 -166 -387 -297 -514 -136
-132 -318 -236 -505 -288 l-100 -28 -475 0 -475 0 -100 28 c-188 51 -387 166
-514 297 -133 136 -238 320 -288 505 l-28 100 0 475 0 475 28 100 c33 122 117
296 188 390 169 223 420 378 696 429 62 12 168 14 523 12 l445 -2 100 -27z"/>
    <path d="M832 2029 c-28 -30 -33 -32 -57 -21 -63 29 -93 4 -46 -40 30 -28 31
-29 16 -65 -8 -19 -15 -37 -15 -39 0 -11 25 -1 56 22 l34 26 40 -21 c50 -26
60 -26 60 -1 0 11 -4 20 -10 20 -5 0 -17 11 -26 25 -15 23 -15 26 5 51 19 24
20 30 8 48 -21 31 -32 30 -65 -5z"/>
    <path d="M1086 2045 c-11 -8 -41 -15 -68 -15 -38 0 -50 -4 -58 -21 -18 -33 5
-51 58 -47 32 2 47 -1 55 -13 17 -27 1 -49 -37 -49 -18 0 -44 -8 -57 -19 -20
-16 -22 -21 -9 -35 9 -12 25 -16 49 -14 32 3 36 0 39 -24 3 -28 0 -30 -65 -43
-69 -14 -66 -57 4 -59 32 -1 39 -5 41 -24 5 -35 -15 -52 -64 -52 -40 0 -45 3
-57 33 -8 17 -21 38 -30 46 -22 18 -21 44 2 65 16 15 18 22 9 41 -16 36 -33
37 -67 4 -25 -24 -35 -28 -51 -19 -48 26 -77 -5 -41 -44 26 -28 26 -37 1 -86
-22 -43 -46 -60 -83 -60 -50 0 -65 62 -17 68 55 6 70 13 70 31 0 30 -26 44
-69 37 -27 -4 -42 -2 -51 8 -15 20 4 56 30 56 10 0 31 11 47 24 24 21 26 26
14 40 -10 12 -27 16 -60 14 -43 -3 -46 -1 -46 21 0 13 7 27 15 31 69 32 75 37
75 60 0 23 -4 25 -40 24 -67 -1 -105 -10 -122 -27 -23 -23 -19 -153 9 -272 11
-49 21 -99 22 -110 2 -31 -27 -29 -62 5 -18 17 -37 28 -41 25 -22 -13 -44
-107 -48 -205 -5 -89 -3 -108 11 -119 14 -11 20 -9 46 19 25 27 30 40 30 84 0
29 6 59 13 68 17 21 183 66 292 78 131 14 145 14 145 -9 0 -11 -4 -22 -9 -25
-5 -3 -60 -13 -123 -22 -62 -8 -126 -20 -141 -26 -61 -23 -55 -85 8 -75 16 3
72 21 122 41 97 38 118 42 127 27 8 -12 -11 -61 -30 -82 -14 -16 -19 -16 -55
-1 -30 12 -42 13 -51 4 -9 -9 -9 -15 0 -24 7 -7 12 -20 12 -29 0 -13 -14 -18
-67 -24 -91 -9 -205 -34 -220 -49 -19 -18 10 -74 42 -82 16 -4 63 2 113 14
147 34 159 35 171 13 16 -29 13 -98 -5 -132 -17 -34 -66 -59 -114 -59 -35 0
-38 -12 -10 -58 24 -38 25 -38 130 14 38 19 75 44 82 56 6 13 13 59 14 103 1
44 2 83 3 88 1 4 59 7 130 7 81 0 132 4 136 11 12 18 -17 69 -48 85 -23 12
-55 15 -146 12 -103 -3 -116 -1 -119 14 -2 12 19 32 75 69 43 28 81 57 86 64
5 9 -6 24 -30 45 -31 25 -35 32 -23 40 20 14 142 8 147 -6 2 -6 -8 -25 -22
-42 -14 -16 -25 -31 -25 -33 0 -4 174 -4 198 -1 34 5 -11 122 -60 156 -20 14
-25 14 -56 -6 -50 -31 -57 -15 -31 78 12 46 23 123 26 185 5 99 4 108 -16 128
-25 25 -30 25 -55 6z m-228 -371 c35 -24 28 -44 -15 -45 -79 -3 -88 4 -50 37
33 28 36 29 65 8z"/>
    <path d="M1798 1993 c-21 -37 -65 -182 -83 -277 -19 -98 -27 -113 -67 -121
-73 -14 -96 -26 -108 -54 -9 -24 -9 -35 5 -60 21 -42 40 -48 80 -26 45 24 57
13 49 -40 -8 -59 10 -111 41 -119 33 -8 31 -31 -5 -85 -17 -24 -30 -48 -30
-53 0 -22 45 -1 108 49 23 19 50 33 59 31 16 -3 78 -73 113 -126 28 -43 66 -5
61 61 -2 41 -23 77 -71 121 -30 27 -39 43 -34 55 28 62 66 191 85 291 19 100
21 122 10 148 -33 78 -79 39 -105 -89 -6 -26 -41 -49 -76 -49 -29 0 -25 18 26
122 51 105 54 148 15 212 -27 43 -51 46 -73 9z m81 -455 c0 -45 -40 -149 -61
-162 -13 -8 -23 -8 -35 0 -29 18 -36 39 -29 88 7 42 12 50 54 76 61 38 72 38
71 -2z"/>
    <path d="M2254 1970 c-113 -7 -154 -24 -154 -64 0 -25 37 -56 67 -56 10 0 40
16 68 35 59 42 120 64 137 47 8 -8 0 -31 -27 -84 -21 -40 -42 -76 -47 -79 -6
-4 -25 -2 -44 4 -56 17 -65 -3 -30 -64 15 -27 26 -56 23 -63 -3 -8 -33 -16
-77 -20 -117 -10 -167 -52 -138 -114 17 -35 47 -38 143 -17 41 10 82 14 90 11
19 -7 21 -147 4 -228 -23 -106 -76 -167 -135 -155 -13 2 -24 2 -24 0 0 -2 12
-27 26 -55 24 -48 27 -50 58 -45 51 8 132 63 150 102 22 45 46 210 46 312 0
94 -7 87 103 97 72 6 121 33 125 68 3 23 -3 30 -39 48 -29 15 -53 20 -78 17
-20 -3 -59 -9 -88 -13 l-51 -6 -21 41 -22 41 54 54 c29 29 72 63 95 75 51 26
54 50 13 92 -33 32 -31 32 -227 19z"/>
  </g>
</svg>
